<svg width="512" height="512" viewBox="0 0 512 512" fill="none" xmlns="http://www.w3.org/2000/svg">
<circle cx="256" cy="256" r="256" fill="#333333"/>
<path d="M375.966 160.971L346.319 135.03C341.176 130.529 334.199 128 326.925 128H228.571C213.423 128 201.143 138.745 201.143 152V176H155.429C140.28 176 128 186.745 128 200V360C128 373.255 140.28 384 155.429 384H283.429C298.577 384 310.857 373.255 310.857 360V336H356.571C371.72 336 384 325.255 384 312V177.941C384 171.576 381.11 165.471 375.966 160.971ZM280 360H158.857C157.948 360 157.076 359.684 156.433 359.121C155.79 358.559 155.429 357.796 155.429 357V203C155.429 202.204 155.79 201.441 156.433 200.879C157.076 200.316 157.948 200 158.857 200H201.143V312C201.143 325.255 213.423 336 228.571 336H283.429V357C283.429 357.796 283.067 358.559 282.424 359.121C281.781 359.684 280.909 360 280 360ZM353.143 312H232C231.091 312 230.219 311.684 229.576 311.121C228.933 310.559 228.571 309.796 228.571 309V155C228.571 154.204 228.933 153.441 229.576 152.879C230.219 152.316 231.091 152 232 152H292.571V196C292.571 202.628 298.711 208 306.286 208H356.571V309C356.571 309.796 356.21 310.559 355.567 311.121C354.924 311.684 354.052 312 353.143 312ZM356.571 184H320V152H325.504C326.413 152 327.285 152.316 327.929 152.878L355.567 177.062C355.886 177.341 356.138 177.672 356.311 178.036C356.483 178.4 356.571 178.79 356.571 179.184V184Z" fill="white"/>
<path d="M212 144H316C344.167 144 367 166.833 367 195V321H212V144Z" fill="white"/>
</svg>
