<svg width="512" height="512" viewBox="0 0 512 512" fill="none" xmlns="http://www.w3.org/2000/svg">
<circle cx="256" cy="256" r="256" fill="#333333"/>
<path d="M362.667 352H259.598C261.632 351.552 263.552 350.72 265.159 349.504L337.508 294.133C345.671 287.936 339.883 277.333 328.348 277.333H277.333V144C277.333 135.157 267.776 128 256 128C244.224 128 234.667 135.157 234.667 144V277.333H183.652C172.117 277.333 166.329 287.936 174.492 294.133L246.841 349.504C248.448 350.72 250.368 351.552 252.402 352H149.333C137.557 352 128 359.157 128 368C128 376.843 137.557 384 149.333 384H362.667C374.443 384 384 376.843 384 368C384 359.157 374.443 352 362.667 352Z" fill="white"/>
</svg>
