<svg width="512" height="512" viewBox="0 0 512 512" fill="none" xmlns="http://www.w3.org/2000/svg">
<circle cx="256" cy="256" r="256" fill="#333333"/>
<g clip-path="url(#clip0_21_13)">
<path d="M256 151.061C290.176 151.061 294.229 151.189 307.723 151.808C321.675 152.448 336.043 155.627 346.208 165.792C356.469 176.053 359.552 190.283 360.192 204.277C360.811 217.771 360.939 221.824 360.939 256C360.939 290.176 360.811 294.229 360.192 307.723C359.563 321.6 356.309 336.107 346.208 346.208C335.947 356.469 321.728 359.552 307.723 360.192C294.229 360.811 290.176 360.939 256 360.939C221.824 360.939 217.771 360.811 204.277 360.192C190.507 359.563 175.808 356.235 165.792 346.208C155.584 336 152.448 321.632 151.808 307.723C151.189 294.229 151.061 290.176 151.061 256C151.061 221.824 151.189 217.771 151.808 204.277C152.437 190.453 155.723 175.861 165.792 165.792C176.032 155.552 190.315 152.448 204.277 151.808C217.771 151.189 221.824 151.061 256 151.061ZM256 128C221.237 128 216.875 128.149 203.221 128.768C183.435 129.675 163.787 135.179 149.483 149.483C135.125 163.84 129.675 183.445 128.768 203.221C128.149 216.875 128 221.237 128 256C128 290.763 128.149 295.125 128.768 308.779C129.675 328.544 135.2 348.245 149.483 362.517C163.829 376.864 183.467 382.325 203.221 383.232C216.875 383.851 221.237 384 256 384C290.763 384 295.125 383.851 308.779 383.232C328.555 382.325 348.224 376.811 362.517 362.517C376.885 348.149 382.325 328.555 383.232 308.779C383.851 295.125 384 290.763 384 256C384 221.237 383.851 216.875 383.232 203.221C382.325 183.435 376.811 163.776 362.517 149.483C348.192 135.157 328.501 129.664 308.779 128.768C295.125 128.149 290.763 128 256 128Z" fill="white"/>
<path d="M256 190.272C219.701 190.272 190.272 219.701 190.272 256C190.272 292.299 219.701 321.728 256 321.728C292.299 321.728 321.728 292.299 321.728 256C321.728 219.701 292.299 190.272 256 190.272ZM256 298.667C232.437 298.667 213.333 279.563 213.333 256C213.333 232.437 232.437 213.333 256 213.333C279.563 213.333 298.667 232.437 298.667 256C298.667 279.563 279.563 298.667 256 298.667Z" fill="white"/>
<path d="M324.331 203.029C332.814 203.029 339.691 196.152 339.691 187.669C339.691 179.186 332.814 172.309 324.331 172.309C315.848 172.309 308.971 179.186 308.971 187.669C308.971 196.152 315.848 203.029 324.331 203.029Z" fill="white"/>
</g>
<defs>
<clipPath id="clip0_21_13">
<rect width="256" height="256" fill="white" transform="translate(128 128)"/>
</clipPath>
</defs>
</svg>
