<svg width="512" height="512" viewBox="0 0 512 512" fill="none" xmlns="http://www.w3.org/2000/svg">
<circle cx="256" cy="256" r="256" fill="#333333"/>
<path fill-rule="evenodd" clip-rule="evenodd" d="M186.116 383.999V211.269H131.244V383.999H186.116V383.999ZM158.685 187.694C177.814 187.694 189.73 174.419 189.73 157.844C189.368 140.9 177.814 128 159.044 128C140.271 128.001 128 140.901 128 157.844C128 174.42 139.909 187.694 158.324 187.694L158.685 187.694ZM216.485 383.999C216.485 383.999 217.205 227.475 216.485 211.269H271.365V236.319H271.001C278.217 224.531 291.218 207.213 320.818 207.213C356.932 207.213 384 231.901 384 284.957V384H329.129V291.594C329.129 268.375 321.189 252.531 301.326 252.531C286.169 252.531 277.137 263.212 273.17 273.537C271.718 277.213 271.365 282.375 271.365 287.537V383.999H216.485Z" fill="white"/>
</svg>
