<svg width="512" height="512" viewBox="0 0 512 512" fill="none" xmlns="http://www.w3.org/2000/svg">
<circle cx="256" cy="256" r="256" fill="#333333"/>
<path d="M384 176C384 164.954 375.046 156 364 156H148C136.954 156 128 164.954 128 176V336C128 347.046 136.954 356 148 356H364C375.046 356 384 347.046 384 336V176Z" fill="white"/>
<path d="M187.072 202.819C180.278 197.966 170.365 198.949 164.93 205.016C159.494 211.081 160.595 219.933 167.389 224.786L236.317 274.02C247.824 282.24 264.176 282.24 275.683 274.02L344.611 224.786C351.405 219.933 352.507 211.081 347.072 205.016C341.637 198.949 331.722 197.966 324.928 202.819L267.625 243.749C260.671 248.717 251.329 248.717 244.375 243.749L187.072 202.819Z" fill="black"/>
</svg>
