<svg width="512" height="512" viewBox="0 0 512 512" fill="none" xmlns="http://www.w3.org/2000/svg">
<circle cx="256" cy="256" r="256" fill="#333333"/>
<path d="M196.158 134.4C196.158 130.865 199.174 128 202.895 128C206.615 128 209.632 130.865 209.632 134.4V172.8C209.632 176.335 206.615 179.2 202.895 179.2C199.174 179.2 196.158 176.335 196.158 172.8V134.4Z" fill="white"/>
<path d="M303.947 134.4C303.947 130.865 306.963 128 310.684 128C314.405 128 317.421 130.865 317.421 134.4V172.8C317.421 176.335 314.405 179.2 310.684 179.2C306.963 179.2 303.947 176.335 303.947 172.8V134.4Z" fill="white"/>
<path fill-rule="evenodd" clip-rule="evenodd" d="M209.632 249.6H196.158V262.4H209.632V249.6ZM196.158 236.8C188.716 236.8 182.684 242.531 182.684 249.6V262.4C182.684 269.469 188.716 275.2 196.158 275.2H209.632C217.073 275.2 223.105 269.469 223.105 262.4V249.6C223.105 242.531 217.073 236.8 209.632 236.8H196.158Z" fill="white"/>
<path fill-rule="evenodd" clip-rule="evenodd" d="M263.526 249.6H250.053V262.4H263.526V249.6ZM250.053 236.8C242.611 236.8 236.579 242.531 236.579 249.6V262.4C236.579 269.469 242.611 275.2 250.053 275.2H263.526C270.968 275.2 277 269.469 277 262.4V249.6C277 242.531 270.968 236.8 263.526 236.8H250.053Z" fill="white"/>
<path fill-rule="evenodd" clip-rule="evenodd" d="M317.421 249.6H303.947V262.4H317.421V249.6ZM303.947 236.8C296.506 236.8 290.474 242.531 290.474 249.6V262.4C290.474 269.469 296.506 275.2 303.947 275.2H317.421C324.863 275.2 330.895 269.469 330.895 262.4V249.6C330.895 242.531 324.863 236.8 317.421 236.8H303.947Z" fill="white"/>
<path fill-rule="evenodd" clip-rule="evenodd" d="M209.632 300.8H196.158V313.6H209.632V300.8ZM196.158 288C188.716 288 182.684 293.731 182.684 300.8V313.6C182.684 320.669 188.716 326.4 196.158 326.4H209.632C217.073 326.4 223.105 320.669 223.105 313.6V300.8C223.105 293.731 217.073 288 209.632 288H196.158Z" fill="white"/>
<path fill-rule="evenodd" clip-rule="evenodd" d="M263.526 300.8H250.053V313.6H263.526V300.8ZM250.053 288C242.611 288 236.579 293.731 236.579 300.8V313.6C236.579 320.669 242.611 326.4 250.053 326.4H263.526C270.968 326.4 277 320.669 277 313.6V300.8C277 293.731 270.968 288 263.526 288H250.053Z" fill="white"/>
<path fill-rule="evenodd" clip-rule="evenodd" d="M175.947 166.4H337.632C345.073 166.4 351.105 172.131 351.105 179.2V281.6C355.758 281.6 360.273 282.16 364.579 283.213V179.2C364.579 165.061 352.514 153.6 337.632 153.6H175.947C161.065 153.6 149 165.061 149 179.2V332.8C149 346.938 161.065 358.4 175.947 358.4H304.421C302.009 354.438 300.139 350.141 298.908 345.6H175.947C168.506 345.6 162.474 339.869 162.474 332.8V179.2C162.474 172.131 168.506 166.4 175.947 166.4Z" fill="white"/>
<path d="M149 179.2C149 165.061 161.065 153.6 175.947 153.6H337.632C352.514 153.6 364.579 165.061 364.579 179.2V224H149V179.2Z" fill="white"/>
<path fill-rule="evenodd" clip-rule="evenodd" d="M337.632 166.4H175.947C168.506 166.4 162.474 172.131 162.474 179.2V211.2H351.105V179.2C351.105 172.131 345.073 166.4 337.632 166.4ZM175.947 153.6C161.065 153.6 149 165.061 149 179.2V224H364.579V179.2C364.579 165.061 352.514 153.6 337.632 153.6H175.947Z" fill="white"/>
<path fill-rule="evenodd" clip-rule="evenodd" d="M357.842 224H155.737V211.2H357.842V224Z" fill="white"/>
<path fill-rule="evenodd" clip-rule="evenodd" d="M351.105 371.2C373.429 371.2 391.526 354.008 391.526 332.8C391.526 311.592 373.429 294.4 351.105 294.4C328.781 294.4 310.684 311.592 310.684 332.8C310.684 354.008 328.781 371.2 351.105 371.2ZM351.105 384C380.871 384 405 361.077 405 332.8C405 304.523 380.871 281.6 351.105 281.6C321.34 281.6 297.21 304.523 297.21 332.8C297.21 361.077 321.34 384 351.105 384Z" fill="white"/>
<path fill-rule="evenodd" clip-rule="evenodd" d="M351.105 301.944C354.826 301.944 357.842 304.809 357.842 308.344V335.852L374.357 346.742C377.414 348.758 378.172 352.746 376.05 355.649C373.928 358.553 369.731 359.273 366.674 357.258L344.368 342.548V308.344C344.368 304.809 347.384 301.944 351.105 301.944Z" fill="white"/>
</svg>
