<svg width="512" height="512" viewBox="0 0 512 512" fill="none" xmlns="http://www.w3.org/2000/svg">
<circle cx="256" cy="256" r="256" fill="#333333"/>
<path fill-rule="evenodd" clip-rule="evenodd" d="M346.712 165.205C322.639 141.227 290.635 128.011 256.541 128C186.285 128 129.104 184.896 129.072 254.848C129.061 277.205 134.935 299.029 146.092 318.272L128 384L195.566 366.357C214.184 376.469 235.148 381.792 256.477 381.803H256.531C326.776 381.803 383.968 324.896 384 254.944C384.021 221.056 370.774 189.173 346.712 165.205ZM256.541 360.373H256.498C237.485 360.373 218.846 355.285 202.576 345.675L198.707 343.392L158.611 353.856L169.318 314.944L166.799 310.955C156.188 294.165 150.594 274.763 150.604 254.848C150.626 196.715 198.16 149.419 256.595 149.419C284.89 149.419 311.493 160.405 331.492 180.331C351.492 200.267 362.5 226.752 362.489 254.923C362.457 313.077 314.933 360.373 256.541 360.373ZM314.654 281.408C311.471 279.819 295.812 272.149 292.886 271.093C289.971 270.037 287.849 269.504 285.716 272.672C283.583 275.84 277.495 282.987 275.63 285.109C273.776 287.221 271.911 287.488 268.728 285.899C265.544 284.309 255.277 280.971 243.112 270.165C233.648 261.76 227.249 251.381 225.395 248.203C223.54 245.024 225.202 243.317 226.788 241.739C228.224 240.32 229.971 238.037 231.568 236.181C233.176 234.347 233.701 233.024 234.773 230.901C235.834 228.789 235.309 226.933 234.505 225.344C233.701 223.765 227.335 208.16 224.687 201.813C222.104 195.627 219.478 196.469 217.517 196.373C215.663 196.277 213.541 196.267 211.408 196.267C209.285 196.267 205.834 197.056 202.919 200.235C200.004 203.413 191.772 211.083 191.772 226.677C191.772 242.283 203.187 257.355 204.773 259.467C206.359 261.579 227.227 293.6 259.178 307.328C266.777 310.592 272.715 312.544 277.334 314.005C284.965 316.416 291.911 316.075 297.398 315.264C303.518 314.357 316.241 307.595 318.899 300.192C321.557 292.789 321.557 286.432 320.753 285.12C319.96 283.787 317.838 282.997 314.654 281.408Z" fill="white"/>
</svg>
