<svg width="512" height="512" viewBox="0 0 512 512" fill="none" xmlns="http://www.w3.org/2000/svg">
<circle cx="256" cy="256" r="256" fill="#333333"/>
<g clip-path="url(#clip0_24_47)">
<path d="M256 128C230.684 128 205.937 135.507 184.887 149.572C163.838 163.637 147.431 183.628 137.743 207.017C128.055 230.405 125.521 256.142 130.46 280.972C135.398 305.801 147.589 328.609 165.49 346.51C183.392 364.411 206.199 376.602 231.029 381.541C255.858 386.479 281.595 383.945 304.984 374.257C328.372 364.569 348.363 348.163 362.428 327.113C376.493 306.064 384 281.316 384 256C383.963 222.064 370.466 189.528 346.469 165.531C322.472 141.534 289.937 128.037 256 128ZM290.368 202.667H221.632C230.686 184.792 242.26 168.311 256 153.728C269.745 168.307 281.32 184.789 290.368 202.667ZM298.901 224C302.18 234.354 303.891 245.14 303.979 256C303.891 266.86 302.18 277.646 298.901 288H213.077C209.799 277.646 208.088 266.86 208 256C208.088 245.14 209.799 234.354 213.077 224H298.901ZM228.267 153.131C215.975 168.168 205.83 184.839 198.123 202.667H163.765C177.908 178.309 201.084 160.509 228.267 153.131ZM149.333 256C149.332 245.145 150.991 234.354 154.251 224H190.933C188.168 234.444 186.735 245.196 186.667 256C186.735 266.804 188.168 277.556 190.933 288H154.251C150.991 277.646 149.332 266.855 149.333 256ZM163.765 309.333H198.123C205.83 327.161 215.975 343.832 228.267 358.869C201.084 351.491 177.908 333.691 163.765 309.333ZM221.632 309.333H290.368C281.315 327.208 269.74 343.689 256 358.272C242.255 343.693 230.68 327.211 221.632 309.333ZM283.787 358.869C296.06 343.828 306.186 327.158 313.877 309.333H348.235C334.105 333.68 310.949 351.478 283.787 358.869ZM362.667 256C362.668 266.855 361.009 277.646 357.749 288H321.067C323.832 277.556 325.266 266.804 325.333 256C325.266 245.196 323.832 234.444 321.067 224H357.728C360.995 234.353 362.661 245.144 362.667 256ZM313.877 202.667C306.186 184.843 296.06 168.172 283.787 153.131C310.949 160.522 334.105 178.32 348.235 202.667H313.877Z" fill="white"/>
</g>
<defs>
<clipPath id="clip0_24_47">
<rect width="256" height="256" fill="white" transform="translate(128 128)"/>
</clipPath>
</defs>
</svg>
